<?xml version="1.0" encoding="UTF-8" standalone="no"?>
<!DOCTYPE svg PUBLIC "-//W3C//DTD SVG 1.1//EN" "http://www.w3.org/Graphics/SVG/1.1/DTD/svg11.dtd">
<svg height="40" viewBox="0 0 210 36" id="logo-sintlucasantwerpen" xmlns="http://www.w3.org/2000/svg" preserveAspectRatio="xMidYMid meet"><g><path fill="#333" d="M2 36h34v-4H2zM0 30h4V0H0z"></path><g transform="translate(8 10)"><path fill="#333" d="M7.334 2.968h2.988C10.242.862 8.302.302 5.362.302 2.398.302.486.872.486 2.882c0 1.6 1.076 2.187 2.9 2.366l3.118.3c.611.057 1.046.22 1.046.714 0 .546-.58.802-2.01.802-1.313 0-2.081-.204-2.263-1.178H.282C.375 8.267 2.21 8.805 5.408 8.805c3.343 0 5.202-.502 5.202-2.726 0-1.613-1.015-2.304-2.867-2.46L4.518 3.34c-.742-.066-1.067-.21-1.067-.605 0-.45.459-.735 1.8-.735 1.246 0 1.947.249 2.083.967zm4.482 5.575h2.59V.563h-2.59v7.98zM23.463.563v4.96h-.07L18.976.564h-3.052v7.981h2.47V3.506h.07l4.485 5.038h2.984V.563h-2.469zm13.193 0H26.85V2.61h3.607v5.934h2.591V2.61h3.608V.563zm13.961 7.981v-2.02h-6.216V.563h-2.59v7.981h8.806zM58.859.563v4.52c0 1.296-.954 1.693-2.386 1.693-1.433 0-2.384-.397-2.384-1.692V.563h-2.59v4.564c0 2.862 1.947 3.678 4.974 3.678s4.976-.816 4.976-3.678V.563h-2.59zm11.545 3.114h3.093C73.43 1.542 71.569.302 68.117.302c-3.476 0-5.522 1.342-5.522 4.251 0 2.91 2.046 4.252 5.521 4.252 3.453 0 5.347-1.24 5.404-3.543h-3.125c-.08.819-.765 1.533-2.282 1.533-1.788 0-2.67-.823-2.67-2.242 0-1.418.882-2.242 2.67-2.242 1.515 0 2.213.759 2.291 1.366zm11.87 4.867h2.867L81.075.563H77.67l-4.1 7.981h2.868l.617-1.259h4.602l.619 1.259zm-4.317-3.102l1.359-2.776h.068l1.365 2.776h-2.792zm14.35-2.474h2.989C95.216.862 93.275.302 90.335.302c-2.964 0-4.876.57-4.876 2.58 0 1.6 1.076 2.187 2.9 2.366l3.118.3c.612.057 1.047.22 1.047.714 0 .546-.58.802-2.01.802-1.314 0-2.082-.204-2.265-1.178h-2.993c.092 2.381 1.926 2.919 5.125 2.919 3.343 0 5.202-.502 5.202-2.726 0-1.613-1.015-2.304-2.867-2.46l-3.225-.278c-.742-.066-1.067-.21-1.067-.605 0-.45.46-.735 1.8-.735 1.246 0 1.948.249 2.083.967zm16.557 5.576h2.865L107.664.563h-3.406l-4.099 7.981h2.866l.617-1.259h4.603l.619 1.259zm-4.319-3.102l1.359-2.776h.07l1.364 2.776h-2.793zm15.506-4.88v4.962h-.07L115.561.563h-3.052v7.981h2.47V3.506h.07l4.485 5.038h2.985V.563h-2.47zm13.192 0h-9.806V2.61h3.608v5.934h2.59V2.61h3.608V.563zm12.34 7.982l2.528-7.981h-2.821l-1.385 5.128h-.07L142.408.563h-2.848l-1.417 5.128h-.07L136.688.563h-2.843l2.491 7.981h3.205l1.407-5.051h.07l1.408 5.051h3.156zm5.905-6.154h6.185V.563h-8.776v7.981h8.899V6.708h-6.308V5.307h5.93v-1.69h-5.93V2.39zm16.017 3.143v-.09c1.013-.237 1.75-.799 1.75-2.252 0-1.739-.878-2.628-3.183-2.628h-6.905v7.981h2.59V5.982h3.14l1.56 2.562h3.002l-1.954-3.01zm-2.057-1.365h-3.69V2.55h3.69c.679 0 .953.264.953.803 0 .55-.274.814-.953.814zM177.143.563h-6.635v7.981h2.59V5.947h4.045c2.314 0 3.203-.878 3.203-2.69 0-1.805-.88-2.694-3.203-2.694zm-.658 3.621h-3.386V2.46h3.386c.715 0 1.014.277 1.014.861 0 .576-.3.863-1.014.863zm7.463-1.794h6.185V.563h-8.776v7.981h8.898V6.708h-6.307V5.307h5.929v-1.69h-5.93V2.39zM199.167.563v4.96h-.07l-4.419-4.96h-3.052v7.981h2.47V3.506h.07l4.485 5.038h2.985V.563h-2.47z" mask="url(#fb)"></path></g></g></svg>
