<?xml version="1.0" encoding="utf-8"?>
<!-- Generator: Adobe Illustrator 27.6.1, SVG Export Plug-In . SVG Version: 6.00 Build 0)  -->
<svg version="1.1" id="a" xmlns="http://www.w3.org/2000/svg" xmlns:xlink="http://www.w3.org/1999/xlink" x="0px" y="0px"
	 viewBox="0 0 330.5 277.5" style="enable-background:new 0 0 330.5 277.5;" xml:space="preserve">
<style type="text/css">
	.st0{fill:#1D1D1B;}
</style>
<path class="st0" d="M144.1,71.4c2.5-1.8,4.6-3.5,6.2-5.1c3.7-3.6,4.2-6.9,1.4-9.8c-2.8-2.9-7.9-4.5-15.2-4.6
	c-7.3-0.1-15.1,1.2-23.4,3.9l6.1-4.7l4.5-3.5c2.4-1.9,3.9-3.1,4.6-3.8c3.9-3.8,4.6-7,1.9-9.8c-5.5-5.7-16.6-6.7-33.5-3l-3.1,0.6
	l3.5-2.6l3.3-2.5l3.9-3.1c1.5-1.2,2.7-2.2,3.5-3c1.4-1.3,2.2-2.6,2.6-3.8l-11.8-0.3c-0.3,0.3-0.5,0.6-0.9,1
	c-1.1,1.1-2.7,2.4-4.7,3.9l-2.6,2L67.8,40.8l-3.4,2.6l-3.6,2.8l-0.6,0.5l13.7,0.4l6.2-4.8c5.5-4.2,12.8-7.2,21.7-9
	c9-1.7,14.8-1.2,17.4,1.5c1.7,1.7,1.1,4-1.8,6.7c-1.1,1.1-2.3,2.1-3.6,3.1l-2.5,1.9L89.4,63.2L86,65.9l-2.6,2l13.6,0.4l4.7-3.6
	c5.5-4.2,12.8-7.2,21.8-8.9c9-1.7,14.8-1.1,17.5,1.6c1.6,1.6,1.1,3.7-1.4,6.1c-0.7,0.7-1.7,1.5-3.1,2.6c-1.4,1.1-2.4,1.8-3,2.3
	c-1.4,1.1-2.4,1.8-2.8,2.1L118.7,79c-5,3.6-8.6,6.5-10.7,8.5c-2.1,2-3,3.8-2.9,5.6l10.6,0.3c0.2-0.5,0.7-1.2,1.4-1.8
	c1.8-1.8,4.7-4,8.6-6.8L144.1,71.4L144.1,71.4z"/>
<polygon class="st0" points="79.9,16.3 78.9,16.3 78.9,17.2 135.5,17.7 135.5,16.8 "/>
<polygon class="st0" points="41.5,46.5 41.5,47.4 98.1,47.9 98.1,47 "/>
<polygon class="st0" points="57.7,67.7 57.7,68.6 114.3,69.1 114.3,68.2 "/>
<polygon class="st0" points="81.3,92 81.2,92.9 137.9,93.4 137.9,92.5 "/>
<polygon class="st0" points="184.3,108.3 184.3,109.2 208.3,109.4 208.4,108.5 "/>
<polygon class="st0" points="127.9,132.3 127.8,133.2 176.7,133.6 176.7,132.7 "/>
<path class="st0" d="M186.4,106.8l-5.4,3.9c-8.2,5.9-17.4,9-27.6,9.2c-7.5,0.1-12.6-1.1-15.1-3.7c-2.2-2.3-1.4-5.2,2.4-8.9
	c7.4-7.1,14.9-11.7,22.6-13.8c7.7-2,13.5-1,17.5,3.1C183.5,99.3,185.3,102.7,186.4,106.8 M198,109.7c0.1-0.1,0.5-0.3,1.2-0.7
	c-1.3-2.9-3.4-5.8-6.4-8.9c-7.7-8-17.6-11.8-29.8-11.3c-12.1,0.4-22.7,5-31.6,13.6c-6.5,6.2-7.8,11.4-3.9,15.4
	c2.8,2.9,7.9,4.7,15.2,5.3c7.3,0.6,15.3-0.1,23.9-2l-3.7,2.7l-4.4,3.2l-3.9,2.9c-1.8,1.3-3.1,2.4-3.9,3.2c0,0-0.1,0.1-0.1,0.1
	l13.7,0.4c0.7-0.5,1.5-1.1,2.3-1.7l3.2-2.3l22.1-15.9c0.3-0.2,1.4-0.9,3.4-2.1L198,109.7L198,109.7z"/>
<polygon class="st0" points="209.8,134.6 209.7,135.5 233.8,135.7 233.8,134.8 "/>
<polygon class="st0" points="139.3,147.8 139.3,148.7 188.1,149.1 188.1,148.2 "/>
<path class="st0" d="M226.5,135.2c-1.3-2.2-2.8-4.2-4.4-5.8c-4.2-4.3-8.8-6.8-14-7.5c-5.2-0.7-9.4,0.6-12.8,3.9
	c-2.4,2.3-3.7,7.1-4,14.5l-0.2,5c-0.3,7.8-1.6,12.8-3.8,14.9c-4.1,3.9-8.1,3.8-12.2-0.4c-3-3.1-4.6-6.7-4.7-10.7l-10-0.3
	c1.3,3.4,3.2,6.4,5.7,9.1c4.5,4.6,9.8,7.3,16.1,8.2c6.2,0.8,11.2-0.6,14.9-4.1c2.6-2.5,4-7.8,4.3-15.9l0.3-5.5
	c0.3-7.1,1.4-11.6,3.3-13.4c2.7-2.6,5.5-2.3,8.6,0.9c2,2,3.3,4.4,4.1,7L226.5,135.2L226.5,135.2z"/>
<polygon class="st0" points="243.2,169.2 243.2,170.1 267.2,170.4 267.2,169.4 "/>
<polygon class="st0" points="181.5,191.5 181.5,192.4 230.3,192.8 230.3,191.9 "/>
<polygon class="st0" points="217.3,145.7 217.3,146.6 266.1,147 266.2,146.1 "/>
<path class="st0" d="M259.1,170l-14.2-14.7l10.9-8.5l-13.7-0.4l-3.3,2.5l-2.6-2.7l-10.1-0.3l7,7.3L211.7,170
	c-4.9,3.7-8.3,6.6-10.2,8.5c-5.1,4.9-5.9,9.4-2.4,13.4l9.7,0.3c-0.4-0.2-0.7-0.5-1-0.8c-2.2-2.2-1.6-5,1.7-8.2
	c1.7-1.6,4.4-3.9,8.3-6.9l21.5-16.6l9.8,10.1L259.1,170L259.1,170z"/>
<polygon class="st0" points="207.1,218 207,218.9 255.9,219.3 255.9,218.4 "/>
<path class="st0" d="M272.1,202.8c-3,2.9-6.9,4-11.8,3.5c-4.9-0.6-9-2.7-12.5-6.3c-0.7-0.7-1.3-1.6-1.8-2.7
	c5.1-3.9,10.1-6.2,15.1-7.1c5-0.9,8.7,0,11.1,2.5C275.5,196.1,275.5,199.5,272.1,202.8 M263.7,209.2c8.1,0.2,14.3-1.8,18.6-5.9
	c3.8-3.7,4-7.3,0.6-10.9c-4.8-4.9-13-6.6-24.7-5.1c-11.7,1.6-20.9,5.5-27.6,12c-3.7,3.6-5.8,7.5-6.3,11.7c-0.3,2.8,0.1,5.4,1.3,7.7
	l10.8,0.3c-3-4.6-1.7-10.2,4-16.7C247.8,206.7,255.6,209,263.7,209.2"/>
<polygon class="st0" points="306.4,238 306.4,238.9 330.4,239.1 330.5,238.2 "/>
<polygon class="st0" points="232.7,244.5 232.6,245.4 281.5,245.8 281.5,244.9 "/>
<polygon class="st0" points="272.6,212.4 272.6,213.3 321.4,213.7 321.4,212.8 "/>
<g>
	<path class="st0" d="M312.5,238.1l13,0.3c-0.8-2.2-2-4.1-3.5-5.7c-6.1-6.3-18.4-6.7-37-1.3l4-3.1l4.1-3.2l3.4-2.7
		c1.5-1.2,2.6-2.1,3.4-2.9c2.3-2.2,3.2-4.2,2.7-6.1l-10.9-0.3c0.1,0.8-0.5,1.9-1.7,3.1c-1.1,1-2.6,2.3-4.5,3.8l-2.5,1.9L259.7,240
		l-3.2,2.4l-3.2,2.4l-0.2,0.1l13.8,0.4l5.3-4.1c5.9-4.6,12.9-7.5,21.1-8.9c8.2-1.4,13.8-0.6,16.7,2.5
		C311.2,235.9,312,237,312.5,238.1"/>
	<path class="st0" d="M145.9,206.8c-7.5,7.2-14.7,11.8-21.8,13.8c-7.1,2-12.6,1-16.5-3c-2.9-3-4.7-6.4-5.5-10.2l5.2-4.1
		c8-6.3,16.9-9.6,26.8-9.9c7.4-0.3,12.4,0.9,14.9,3.5C151.3,199.3,150.2,202.6,145.9,206.8 M155,211.8c7.2-7,8.8-12.6,4.7-16.8
		c-2.8-2.9-7.9-4.6-15.1-5.2c-7.2-0.5-15.1,0.3-23.5,2.5l19.6-15.4l-13.5-0.4L78,215.4c-14.9,11.7-26.5,13.3-34.9,4.5
		c-0.1-0.1-0.2-0.2-0.3-0.4l-12.1-0.3c6.8,6.8,16,10,27.7,9.4c11.9-0.6,22.8-4.8,32.7-12.6l3.8-3l1.4,1.5c7.3,7.5,16.7,11,28.4,10.4
		C136.3,224.5,146.4,220.1,155,211.8"/>
</g>
<polygon class="st0" points="27.4,218.7 27.4,219.6 65.4,219.9 65.4,219 "/>
<polygon class="st0" points="108.3,175.7 108.3,176.6 157.1,177 157.1,176.1 "/>
<path class="st0" d="M178.6,251.8c-5.6,5.4-11.4,8.8-17.3,10.1c-5.9,1.4-10.5,0.3-13.8-3c-5.5-5.6-3.6-12.9,5.5-21.7
	c5.6-5.4,11.3-8.7,17.3-10.1c6-1.4,10.5-0.4,13.8,3C189.6,235.8,187.7,243,178.6,251.8 M190.6,253.2c8.7-8.4,9.9-16,3.4-22.6
	c-2.4-2.5-5.4-4.3-9.1-5.4l-20.7-0.5c-9.4,1.6-17.2,5.4-23.3,11.3c-8.7,8.4-9.9,15.9-3.5,22.5c2.2,2.2,4.8,3.9,7.9,5.1l24.1,0.6
	C177.9,262.3,185,258.7,190.6,253.2"/>
<polygon class="st0" points="134.7,263.4 134.7,264.4 183.3,264.8 183.5,264.8 183.5,263.9 "/>
<polygon class="st0" points="149.3,224.2 149.3,225.1 198.1,225.5 198.2,224.6 "/>
<polygon class="st0" points="0,133.8 0,134.7 0,134.8 48.8,135.2 48.9,134.3 "/>
<g>
	<path class="st0" d="M65,118.7c-3,2.9-6.9,4-11.8,3.5c-4.9-0.6-9-2.7-12.5-6.3c-0.7-0.7-1.3-1.6-1.8-2.7C44,109.2,49,106.9,54,106
		c5-0.9,8.7,0,11.1,2.5C68.5,112,68.4,115.3,65,118.7 M56.7,125c8.1,0.2,14.3-1.8,18.6-5.9c3.8-3.7,4-7.3,0.6-10.9
		c-4.8-4.9-13-6.6-24.7-5.1c-11.7,1.6-20.9,5.5-27.6,12c-3.7,3.6-5.8,7.5-6.3,11.7c-0.3,2.8,0.1,5.4,1.3,7.7l10.8,0.3
		c-3-4.6-1.7-10.2,4-16.7C40.8,122.5,48.5,124.8,56.7,125"/>
	<path class="st0" d="M112.7,158.9l11.1,0.3c-0.7-1.6-1.5-2.9-2.4-3.8c-4.1-4.3-14.1-4.7-30.1-1.4l-2.6,0.6l1.5-3.1
		c4-8.3,6-14.6,5.9-18.9l-8.6-0.2c0.1,1.7-0.5,4-1.7,7l-2.7,6.6c-0.1,0.3-1,2.2-2.6,5.6l-2.3,4.8l-2.3,0.5l-5.9,1.3
		c-10.7,2.3-17.6,1.9-20.8-1.5c-0.9-1-1.5-2.1-1.6-3.4L38,153c0.5,2.1,1.6,4,3.3,5.8c5.3,5.4,15.9,6.2,31.9,2.3l3.5-0.9l-2.1,4.4
		c-5,10.4-6.9,17.6-5.7,21.8l9.1,0.2c-1.9-2.9,0.5-11.1,7.1-24.5l1.7-3.6l3.4-0.8c11.7-2.7,19.1-2.4,22.2,0.8
		C112.5,158.6,112.6,158.7,112.7,158.9"/>
</g>
<polygon class="st0" points="65.8,131.7 65.8,132.6 114.6,133 114.6,132.1 "/>
<polygon class="st0" points="50.5,186.1 50.5,187 99.3,187.4 99.3,186.5 "/>
<polygon class="st0" points="18.6,153.1 18.6,154 67.4,154.4 67.4,153.5 "/>
<polygon class="st0" points="106.9,158.9 106.9,159.8 130.9,160 130.9,159.1 "/>
</svg>
