<?xml version="1.0" encoding="UTF-8"?>
<svg id="a" data-name="Laag 1" xmlns="http://www.w3.org/2000/svg" width="164.564mm" height="114.192mm" viewBox="0 0 466.48 323.695">
  <path d="m218.124,89.258c2.549-1.813,4.629-3.495,6.237-5.051,3.747-3.615,4.222-6.873,1.426-9.769-2.826-2.926-7.904-4.452-15.24-4.579-7.333-.125-15.137,1.178-23.411,3.912l6.072-4.691,4.464-3.463c2.392-1.855,3.925-3.108,4.596-3.76,3.922-3.787,4.569-7.043,1.94-9.764-5.455-5.65-16.633-6.651-33.53-3.006l-3.118.637,3.465-2.649,3.333-2.524,3.895-3.081c1.515-1.183,2.684-2.17,3.505-2.961,1.351-1.306,2.197-2.557,2.554-3.76l-11.802-.307c-.252.305-.534.622-.884.956-1.111,1.076-2.674,2.384-4.686,3.932l-2.582,1.982-22.542,17.422-3.413,2.617-3.588,2.786-.599.467,13.669.357,6.212-4.841c5.513-4.247,12.753-7.235,21.718-8.961,8.968-1.725,14.753-1.243,17.354,1.453,1.668,1.725,1.084,3.962-1.755,6.704-1.114,1.074-2.312,2.117-3.595,3.131l-2.537,1.853-21.846,16.825-3.371,2.661-2.602,2.02,13.627.357,4.671-3.608c5.51-4.249,12.77-7.215,21.781-8.898,9.01-1.68,14.84-1.148,17.489,1.595,1.58,1.635,1.126,3.655-1.361,6.057-.674.652-1.71,1.51-3.111,2.579-1.401,1.069-2.392,1.828-2.974,2.279-1.431,1.096-2.364,1.8-2.799,2.107l-12.089,8.656c-5.043,3.625-8.616,6.454-10.723,8.489-2.06,1.99-3.021,3.837-2.891,5.55l10.568.277c.217-.544.662-1.151,1.361-1.825,1.845-1.783,4.699-4.037,8.566-6.771l18.543-13.392Z" fill="#1d1d1b"/>
  <polygon points="153.962 34.166 152.938 34.166 152.931 35.075 209.535 35.57 209.543 34.653 153.962 34.166" fill="#1d1d1b"/>
  <polygon points="115.498 64.42 115.488 65.336 172.095 65.833 172.105 64.917 115.498 64.42" fill="#1d1d1b"/>
  <polygon points="131.75 85.544 131.74 86.46 188.347 86.957 188.357 86.041 131.75 85.544" fill="#1d1d1b"/>
  <polygon points="155.283 109.915 155.273 110.831 211.88 111.328 211.89 110.412 155.283 109.915" fill="#1d1d1b"/>
  <polygon points="258.342 126.152 258.332 127.068 282.36 127.285 282.385 126.366 258.342 126.152" fill="#1d1d1b"/>
  <polygon points="201.881 150.183 201.856 151.1 250.704 151.529 250.711 150.613 201.881 150.183" fill="#1d1d1b"/>
  <path d="m260.444,124.73l-5.413,3.87c-8.239,5.917-17.434,8.968-27.591,9.155-7.537.15-12.566-1.081-15.082-3.685-2.177-2.257-1.366-5.218,2.434-8.888,7.393-7.14,14.933-11.732,22.617-13.777,7.685-2.045,13.507-1.016,17.467,3.083,2.629,2.724,4.484,6.137,5.568,10.241m11.547,2.909c.145-.085.549-.307,1.218-.669-1.303-2.869-3.425-5.827-6.364-8.871-7.715-7.989-17.649-11.759-29.8-11.31-12.149.449-22.675,4.971-31.57,13.562-6.469,6.247-7.77,11.372-3.902,15.377,2.824,2.924,7.882,4.691,15.175,5.3,7.293.612,15.255-.06,23.891-2.012l-3.718,2.651-4.419,3.158-3.937,2.949c-1.75,1.293-3.063,2.362-3.942,3.211-.04.037-.075.075-.112.115l13.667.357c.699-.529,1.476-1.104,2.342-1.74l3.188-2.314,22.095-15.906c.29-.225,1.411-.939,3.356-2.14l2.834-1.718Z" fill="#1d1d1b"/>
  <polygon points="283.775 152.496 283.768 153.412 307.793 153.627 307.818 152.71 283.775 152.496" fill="#1d1d1b"/>
  <polygon points="213.305 165.69 213.28 166.606 262.127 167.036 262.137 166.119 213.305 165.69" fill="#1d1d1b"/>
  <path d="m300.479,153.059c-1.348-2.24-2.801-4.177-4.369-5.797-4.154-4.302-8.808-6.808-13.959-7.517-5.153-.709-9.427.577-12.823,3.855-2.369,2.289-3.7,7.12-3.99,14.493l-.167,5.011c-.295,7.777-1.57,12.753-3.825,14.93-4.067,3.927-8.142,3.78-12.219-.442-2.996-3.101-4.556-6.674-4.691-10.716l-10.017-.262c1.266,3.385,3.171,6.409,5.732,9.063,4.467,4.624,9.819,7.345,16.066,8.159,6.242.814,11.21-.562,14.898-4.122,2.574-2.487,4.02-7.785,4.334-15.894l.27-5.52c.267-7.103,1.351-11.572,3.256-13.41,2.661-2.572,5.535-2.262,8.616.929,1.957,2.027,3.316,4.364,4.082,7.011l8.806.23Z" fill="#1d1d1b"/>
  <polygon points="317.199 187.106 317.189 188.022 341.217 188.24 341.242 187.321 317.199 187.106" fill="#1d1d1b"/>
  <polygon points="255.506 209.392 255.483 210.308 304.328 210.738 304.338 209.821 255.506 209.392" fill="#1d1d1b"/>
  <polygon points="291.348 163.594 291.323 164.51 340.17 164.939 340.178 164.023 291.348 163.594" fill="#1d1d1b"/>
  <path d="m333.122,187.871l-14.176-14.68,10.878-8.496-13.682-.357-3.308,2.524-2.589-2.679-10.097-.265,7.048,7.298-21.436,16.633c-4.871,3.743-8.289,6.561-10.249,8.454-5.113,4.938-5.91,9.417-2.417,13.447l9.724.255c-.362-.25-.692-.524-.986-.831-2.17-2.247-1.603-4.966,1.705-8.162,1.668-1.61,4.427-3.907,8.276-6.891l21.459-16.613,9.752,10.099,10.097.265Z" fill="#1d1d1b"/>
  <polygon points="281.088 235.879 281.066 236.796 329.91 237.225 329.92 236.309 281.088 235.879" fill="#1d1d1b"/>
  <path d="m346.077,220.703c-2.986,2.884-6.906,4.037-11.757,3.463-4.854-.572-9.033-2.674-12.536-6.304-.679-.702-1.283-1.618-1.808-2.749,5.101-3.855,10.134-6.212,15.1-7.076,4.963-.861,8.661-.035,11.093,2.482,3.363,3.483,3.333,6.878-.092,10.184m-8.334,6.394c8.124.215,14.338-1.758,18.64-5.912,3.835-3.703,4.027-7.338.579-10.908-4.776-4.948-13.02-6.644-24.729-5.093-11.709,1.55-20.9,5.548-27.573,11.991-3.688,3.56-5.782,7.453-6.289,11.672-.337,2.829.087,5.38,1.271,7.652l10.848.285c-3.041-4.631-1.725-10.189,3.96-16.675,7.403,4.444,15.167,6.776,23.294,6.988" fill="#1d1d1b"/>
  <polygon points="380.45 255.902 380.44 256.819 404.468 257.033 404.493 256.117 380.45 255.902" fill="#1d1d1b"/>
  <polygon points="306.679 262.367 306.654 263.283 355.501 263.713 355.511 262.796 306.679 262.367" fill="#1d1d1b"/>
  <polygon points="346.601 230.262 346.576 231.178 395.424 231.608 395.434 230.691 346.601 230.262" fill="#1d1d1b"/>
  <g>
    <path d="m386.481,256.017l12.963.34c-.819-2.235-1.977-4.139-3.488-5.705-6.074-6.289-18.408-6.731-37.001-1.326l3.99-3.073,4.077-3.158,3.371-2.659c1.485-1.153,2.626-2.112,3.415-2.876,2.267-2.19,3.173-4.217,2.721-6.084l-10.893-.287c.092.849-.469,1.87-1.715,3.073-1.084,1.046-2.587,2.299-4.511,3.762l-2.539,1.94-23.119,17.876-3.193,2.404-3.151,2.449-.182.142,13.767.362,5.328-4.115c5.89-4.559,12.933-7.53,21.127-8.916,8.192-1.386,13.759-.557,16.695,2.487,1.089,1.126,1.865,2.247,2.339,3.363" fill="#1d1d1b"/>
    <path d="m219.899,224.656c-7.453,7.198-14.725,11.802-21.821,13.812-7.096,2.012-12.581,1.011-16.456-3.003-2.886-2.989-4.731-6.389-5.533-10.199l5.193-4.102c7.954-6.267,16.885-9.565,26.789-9.897,7.428-.262,12.401.911,14.92,3.52,2.294,2.374,1.261,5.665-3.093,9.869m9.13,5.013c7.208-6.958,8.771-12.551,4.696-16.773-2.831-2.931-7.859-4.649-15.082-5.151-7.225-.504-15.062.322-23.511,2.477l19.556-15.449-13.469-.352-49.214,38.841c-14.85,11.739-26.482,13.252-34.901,4.536-.11-.115-.22-.237-.33-.357l-12.094-.315c6.781,6.821,16.009,9.967,27.698,9.417,11.874-.557,22.777-4.751,32.704-12.586l3.835-2.951,1.396,1.533c7.258,7.515,16.713,10.988,28.365,10.419,11.649-.569,21.768-4.998,30.352-13.29" fill="#1d1d1b"/>
  </g>
  <polygon points="101.438 236.551 101.418 237.468 139.432 237.8 139.44 236.883 101.438 236.551" fill="#1d1d1b"/>
  <polygon points="182.303 193.553 182.278 194.469 231.125 194.898 231.135 193.982 182.303 193.553" fill="#1d1d1b"/>
  <path d="m252.636,269.732c-5.59,5.4-11.352,8.773-17.289,10.121-5.937,1.351-10.531.342-13.779-3.023-5.455-5.65-3.618-12.883,5.515-21.701,5.56-5.368,11.315-8.736,17.267-10.099,5.95-1.366,10.538-.377,13.759,2.959,5.483,5.677,3.66,12.925-5.473,21.743m12.019,1.376c8.721-8.421,9.859-15.971,3.415-22.642-2.402-2.489-5.433-4.297-9.08-5.435l-20.665-.542c-9.425,1.64-17.18,5.393-23.261,11.265-8.721,8.424-9.904,15.926-3.543,22.512,2.152,2.232,4.791,3.922,7.899,5.088l24.075.632c8.464-1.81,15.519-5.433,21.159-10.878" fill="#1d1d1b"/>
  <polygon points="208.73 281.327 208.705 282.243 257.298 282.67 257.552 282.67 257.56 281.757 208.73 281.327" fill="#1d1d1b"/>
  <polygon points="223.349 242.081 223.324 242.997 272.171 243.427 272.179 242.511 223.349 242.081" fill="#1d1d1b"/>
  <polygon points="74.047 151.725 74.025 152.559 74.025 152.641 122.87 153.071 122.877 152.154 74.047 151.725" fill="#1d1d1b"/>
  <g>
    <path d="m139.035,136.543c-2.986,2.884-6.906,4.037-11.757,3.463-4.854-.572-9.033-2.674-12.536-6.304-.679-.702-1.283-1.618-1.808-2.749,5.101-3.855,10.134-6.212,15.1-7.076,4.963-.861,8.661-.035,11.093,2.482,3.363,3.483,3.333,6.878-.092,10.184m-8.334,6.394c8.124.215,14.338-1.758,18.64-5.912,3.835-3.703,4.027-7.338.579-10.908-4.776-4.948-13.02-6.644-24.729-5.093-11.709,1.55-20.9,5.548-27.573,11.991-3.688,3.56-5.782,7.453-6.289,11.672-.337,2.829.087,5.38,1.271,7.652l10.848.285c-3.041-4.631-1.725-10.189,3.96-16.675,7.403,4.444,15.167,6.776,23.294,6.988" fill="#1d1d1b"/>
    <path d="m186.73,176.777l11.115.292c-.699-1.603-1.491-2.869-2.377-3.787-4.127-4.272-14.146-4.749-30.057-1.428l-2.594.554,1.451-3.146c3.995-8.344,5.975-14.643,5.94-18.9l-8.631-.225c.1,1.655-.464,3.997-1.693,7.028l-2.664,6.644c-.12.285-.971,2.155-2.557,5.61l-2.287,4.836-2.299.527-5.905,1.288c-10.676,2.334-17.611,1.85-20.805-1.458-.929-.959-1.458-2.107-1.605-3.44l-9.749-.255c.504,2.057,1.613,3.977,3.333,5.757,5.258,5.443,15.889,6.204,31.9,2.282l3.468-.889-2.062,4.367c-4.988,10.366-6.873,17.646-5.66,21.838l9.07.237c-1.87-2.911.479-11.078,7.056-24.502l1.728-3.61,3.363-.784c11.702-2.699,19.112-2.439,22.223.784.09.092.192.227.3.379" fill="#1d1d1b"/>
  </g>
  <polygon points="139.842 149.588 139.819 150.504 188.664 150.934 188.674 150.017 139.842 149.588" fill="#1d1d1b"/>
  <polygon points="124.526 203.988 124.501 204.904 173.348 205.333 173.358 204.417 124.526 203.988" fill="#1d1d1b"/>
  <polygon points="92.617 170.946 92.592 171.862 141.439 172.291 141.446 171.375 92.617 170.946" fill="#1d1d1b"/>
  <polygon points="180.928 176.77 180.918 177.686 204.946 177.901 204.971 176.982 180.928 176.77" fill="#1d1d1b"/>
</svg>